<svg xmlns="http://www.w3.org/2000/svg" width="1922.508" height="213.042" viewBox="0 0 1922.508 213.042">
  <g id="Grupo_348" data-name="Grupo 348" transform="translate(0 -313.99)">
    <path id="Caminho_4" data-name="Caminho 4" d="M-717.47-88.01c-36.27,0-44.33.91-50.96,5.98s-8.58,13.91-8.58,38.09c0,25.48,1.82,34.06,8.58,39.26C-761.8.39-753.74,1.3-717.21,1.3c35.88,0,44.07-.91,50.7-5.98s8.58-13.78,8.58-38.74c0-24.83-1.95-33.54-8.58-38.61S-681.2-88.01-717.47-88.01Zm0,22.49c24.18,0,27.04.39,30.03,3.9,2.34,2.86,3.12,7.8,3.12,20.67,0,10.53-.91,14.3-3.9,16.64-3.51,2.6-7.8,3.12-28.99,3.12-21.84,0-26-.39-29.51-3.12-3.12-2.47-3.9-5.98-3.9-16.77,0-11.05.52-15.99,2.08-18.98C-745.94-65.13-743.47-65.52-717.47-65.52Zm69.94-21.19V0h26.39V-30.03h62.01V-49.92h-62.01V-66.3h65.26V-86.71Zm97.63,0V0h96.46V-20.8H-523.9V-34.58h66.43V-53.69H-523.9V-66.3h69.94V-86.71ZM-445.12,0h26.39V-21.97h37.31c10.92,0,12.87.26,14.69,2.34,2.08,2.21,2.6,5.33,2.6,15.08V0h26V-8.06c.52-20.02-1.82-23.92-15.21-25.48,5.2-.78,7.67-1.69,10.14-3.64,4.68-3.51,5.98-8.45,5.98-21.32,0-15.08-1.95-20.8-8.58-24.83-5.59-3.38-5.59-3.38-35.49-3.38h-63.83Zm26.39-43.68V-65h37.18c11.96.13,12.35.13,14.17.91,2.73,1.17,3.77,3.64,3.77,9.49,0,5.46-.78,8.06-2.86,9.36-1.82,1.3-1.82,1.3-15.08,1.56Zm87.1-43.03v22.1h38.61V0h27.69V-64.61h38.61v-22.1ZM-138.19,0h30.03l-45.37-86.71h-41.08L-240.5,0h30.16l7.41-14.69h57.33Zm-16.64-33.67h-38.74l16.77-32.89h5.2Zm83.07-53.04V0H24.7V-20.8H-45.76V-34.58H20.67V-53.69H-45.76V-66.3H24.18V-86.71ZM29.9-28.73v4.16c0,11.96,1.95,17.03,7.93,20.8C43.94.13,54.47,1.3,81.38,1.3c25.87,0,36.79-.65,41.99-2.6,8.97-3.38,12.61-10.79,12.61-25.87,0-12.09-2.21-17.94-8.19-21.84-5.59-3.51-11.18-4.16-39.78-5.07-18.33-.52-25.48-.91-27.82-1.56-2.73-.65-3.9-2.34-3.9-5.59,0-6.37,1.82-6.89,24.18-6.89,18.72,0,21.97.26,24.18,1.56,1.95,1.17,2.34,2.34,2.6,7.15h25.48c.13-1.69.13-3.51.13-4.03,0-10.27-2.08-15.73-7.28-19.24-6.11-4.16-15.21-5.33-40.43-5.33-20.8,0-32.76.52-37.83,1.56-11.96,2.6-16.64,10.01-16.64,26.52,0,19.11,5.98,24.57,27.43,25.22l7.02.26,14.04.65,20.8.78c8.45.13,10.4,1.43,10.4,6.63,0,7.67,0,7.67-28.34,7.67-18.59,0-21.45-.26-23.92-1.82-2.08-1.3-2.6-2.99-2.6-8.19ZM145.21,0H171.6V-21.19h33.28c18.72,0,24.57-.52,30.42-2.47,10.4-3.77,13.91-11.31,13.91-30.55,0-22.23-4.68-29.25-21.06-31.72-4.81-.65-7.15-.78-23.53-.78H145.21ZM171.6-42.9V-65h33.02c11.57.13,11.83.13,13.65.78,3.38,1.17,4.55,3.77,4.55,10.01,0,5.98-.78,8.32-3.25,9.88-2.21,1.3-2.73,1.3-14.95,1.43Zm86.32-43.81V0h96.46V-20.8H283.92V-34.58h66.43V-53.69H283.92V-66.3h69.94V-86.71Zm187.07,53.3c-.13,12.87-.52,13-29.51,13-27.82,0-28.21-.26-28.21-22.49,0-13.13,1.04-18.2,4.16-20.8,2.6-2.08,7.41-2.6,23.92-2.6,16.64,0,24.31.78,26.26,2.47,1.56,1.3,1.82,2.47,2.08,8.19h26.39v-4.29c0-13.91-2.6-20.28-10.01-24.05-5.98-3.12-14.04-4.03-37.18-4.03-45.37,0-54.86,2.21-59.54,13.91-1.95,4.81-2.47,11.96-2.47,31.33,0,11.05.26,18.2.65,22.1,1.04,8.84,3.64,13.65,9.36,16.9C377.91.26,388.83,1.3,422.76,1.3c19.24,0,28.73-.78,35.75-2.99,9.62-3.12,13.26-9.49,13.26-23.53,0-1.3-.13-3.25-.26-8.19Zm35.88-53.3V0h27.69V-86.71ZM614.77,0H644.8L599.43-86.71H558.35L512.46,0h30.16l7.41-14.69h57.33ZM598.13-33.67H559.39l16.77-32.89h5.2ZM648.7-86.71V0h89.31V-22.1H676.39V-86.71Zm98.02,0v49.53h26V-86.71Zm-1.56,59.54V0h29.12V-27.17Z" transform="translate(960 402)" fill="#fff"/>
    <path id="Shape_2_copy_2" data-name="Shape 2 copy 2" d="M698.354,923.61V964h8.469V949.135H932.862V938.474H706.823V923.61Z" transform="translate(989.646 -448.501)" fill="#fff"/>
    <path id="Shape_2_copy_2-2" data-name="Shape 2 copy 2" d="M932.862,923.61V964h-8.469V949.135H698.354V938.474H924.393V923.61Z" transform="translate(-698.354 -448.501)" fill="#fff"/>
    <path id="Caminho_5" data-name="Caminho 5" d="M-668.951,0h17.458V-14.018h22.016c12.384,0,16.254-.344,20.124-1.634,6.88-2.494,9.2-7.482,9.2-20.21,0-14.706-3.1-19.35-13.932-20.984-3.182-.43-4.73-.516-15.566-.516h-39.3Zm17.458-28.38V-43h21.844c7.654.086,7.826.086,9.03.516,2.236.774,3.01,2.494,3.01,6.622,0,3.956-.516,5.5-2.15,6.536-1.462.86-1.806.86-9.89.946Zm56.5-12.3V0h15.222V-16.856c0-6.278.43-8.514,1.892-10.492,1.462-1.892,4.3-2.924,7.74-2.924,6.278,0,8,1.634,8,7.654h14.362V-25.37c0-12.212-4.128-16.34-16.426-16.34-8.514,0-12.814,1.978-15.652,7.138h-.774v-6.106Zm79.722-1.032c-13.846,0-19.78.946-23.564,3.7-4.042,2.924-5.246,6.794-5.246,16.34,0,11.782.946,15.566,4.73,18.662,3.87,3.182,8.944,4.042,24.166,4.042,15.05,0,20.124-.86,23.994-4.042,3.7-3.1,4.73-6.88,4.73-18.06,0-10.234-1.118-13.932-5.246-16.942C-495.489-40.764-501.337-41.71-515.269-41.71Zm.086,11.438c4.3,0,7.912.43,9.8,1.2,2.838,1.118,3.7,3.1,3.7,8.6,0,8.6-1.978,10.062-13.5,10.062-4.9,0-8.342-.43-10.234-1.29-2.752-1.118-3.44-2.924-3.44-8.342C-528.857-28.724-526.793-30.272-515.183-30.272Zm90.558-27.09h-15.222v22.1h-.6c-2.924-5.16-6.45-6.536-17.114-6.536-10.492,0-14.706.688-18.4,3.1-4.3,2.838-5.934,7.74-5.934,18.06,0,10.148,1.032,14.276,4.386,17.372,3.526,3.182,8.772,4.3,19.78,4.3s15.05-1.462,17.974-6.364h.774V0h14.362Zm-27.95,27c10.836,0,12.814,1.548,12.814,9.976,0,4.73-.6,6.88-2.322,8-1.72,1.2-5.848,1.892-11.438,1.892-11.438,0-13.158-1.376-13.158-10.32C-466.679-28.982-464.615-30.358-452.575-30.358ZM-362.877,0V-40.678H-378.1v16.34c0,7.568-.516,9.718-2.666,11.61-1.892,1.634-4.644,2.236-10.062,2.236-5.762,0-8.084-.516-9.89-2.236-1.634-1.548-2.064-3.44-2.064-9.374V-40.678H-418V-22.1c0,11.094.774,14.19,4.472,17.974,3.7,3.7,8.686,5.16,18.146,5.16,10.234,0,15.05-1.978,17.372-7.138h.774V0Zm11.352-50.052v9.374h-8v10.922h8v11.868c0,3.354,0,5.418.086,6.106.172,4.644,1.032,6.88,3.182,9.03,3.01,2.924,6.966,3.784,16.684,3.784,10.492,0,15.136-1.29,18.232-5.16,2.322-3.01,2.924-5.5,3.1-13.244h-13.932c0,4.214-.086,4.558-.6,5.5-.688,1.462-2.408,2.064-5.5,2.064-2.924,0-4.472-.6-5.246-1.978-.688-1.032-.774-1.634-.774-6.106V-29.756h24.08V-40.678H-336.3v-9.374Zm73.7,8.342c-13.846,0-19.78.946-23.564,3.7-4.042,2.924-5.246,6.794-5.246,16.34,0,11.782.946,15.566,4.73,18.662,3.87,3.182,8.944,4.042,24.166,4.042,15.05,0,20.124-.86,23.994-4.042,3.7-3.1,4.73-6.88,4.73-18.06,0-10.234-1.118-13.932-5.246-16.942C-258.043-40.764-263.891-41.71-277.823-41.71Zm.086,11.438c4.3,0,7.912.43,9.8,1.2,2.838,1.118,3.7,3.1,3.7,8.6,0,8.6-1.978,10.062-13.5,10.062-4.9,0-8.342-.43-10.234-1.29-2.752-1.118-3.44-2.924-3.44-8.342C-291.411-28.724-289.347-30.272-277.737-30.272Zm33.11,17.286c.086,4.73,1.118,7.568,3.612,9.8,3.612,3.354,8.686,4.214,23.478,4.214,23.564,0,29.068-2.666,29.068-14.276,0-9.116-4.472-12.556-16.254-12.642-15.652-.086-18.318-.172-20.812-.344-2.408-.172-3.612-1.032-3.612-2.666,0-2.58,2.924-3.354,12.47-3.354,5.16,0,8.256.344,9.546,1.2.516.344.688.6,1.032,1.892h15.48c-.344-4.9-1.118-7.052-3.268-8.772-3.44-2.924-8.514-3.784-22.36-3.784-10.664,0-17.8.6-21.07,1.892-4.816,1.806-7.052,5.59-7.052,11.868,0,8.686,4.816,12.3,16.34,12.47,14.964,0,18.748.086,20.812.258,2.236.258,3.526,1.376,3.526,3.01,0,2.924-2.838,3.784-12.728,3.784-9.546,0-12.47-1.032-12.728-4.558Zm139.406-44.376h-15.222v22.1h-.6c-2.924-5.16-6.45-6.536-17.114-6.536-10.492,0-14.706.688-18.4,3.1-4.3,2.838-5.934,7.74-5.934,18.06,0,10.148,1.032,14.276,4.386,17.372,3.526,3.182,8.772,4.3,19.78,4.3s15.05-1.462,17.974-6.364h.774V0h14.362Zm-27.95,27c10.836,0,12.814,1.548,12.814,9.976,0,4.73-.6,6.88-2.322,8-1.72,1.2-5.848,1.892-11.438,1.892-11.438,0-13.158-1.376-13.158-10.32C-147.275-28.982-145.211-30.358-133.171-30.358ZM-59.9-12.986c-.6,3.612-2.408,4.3-12.126,4.3-5.5,0-8.686-.516-10.32-1.72-1.462-1.118-1.892-2.494-1.892-6.622h39.732c.086-1.72.086-3.612.086-4.128,0-9.2-1.376-13.76-4.988-16.77-3.7-3.01-8.514-3.87-22.274-3.87-13.244,0-18.318.86-22.274,3.612-4.3,3.01-5.5,7.052-5.5,17.974,0,10.406,1.2,14.448,5.16,17.458C-90.6,0-85.011,1.032-73.229,1.032c21.758,0,27.348-2.752,28.466-14.018ZM-84.237-25.37c.172-5.676,2.58-6.966,12.814-6.966,6.02,0,9.116.6,10.492,2.064.946.946,1.118,1.72,1.2,4.9Zm44.2,12.384c.086,4.73,1.118,7.568,3.612,9.8,3.612,3.354,8.686,4.214,23.478,4.214,23.564,0,29.068-2.666,29.068-14.276,0-9.116-4.472-12.556-16.254-12.642-15.652-.086-18.318-.172-20.812-.344-2.408-.172-3.612-1.032-3.612-2.666,0-2.58,2.924-3.354,12.47-3.354,5.16,0,8.256.344,9.546,1.2.516.344.688.6,1.032,1.892h15.48c-.344-4.9-1.118-7.052-3.268-8.772-3.44-2.924-8.514-3.784-22.36-3.784-10.664,0-17.8.6-21.07,1.892-4.816,1.806-7.052,5.59-7.052,11.868,0,8.686,4.816,12.3,16.34,12.47,14.964,0,18.748.086,20.812.258C-.387-14.964.9-13.846.9-12.212c0,2.924-2.838,3.784-12.728,3.784-9.546,0-12.47-1.032-12.728-4.558ZM60.759-16.34c-.688,4.644-3.268,5.848-12.212,5.848-4.042,0-7.31-.43-9.116-1.2-2.752-1.118-3.612-3.182-3.612-8.514,0-8.514,1.978-10.148,12.556-10.148,8.944,0,11.954,1.548,12.47,6.192h15.48C76.067-31.82,74.949-35,71.681-37.582c-3.87-3.182-9.8-4.214-23.306-4.214-13.76,0-19.092.946-22.962,4.128C21.8-34.744,20.6-30.444,20.6-20.64c0,10.75,1.29,15.136,5.246,17.888C29.885.172,35.131,1.032,47.6,1.032c16,0,20.984-1.032,24.854-4.988,2.666-2.666,3.526-5.59,3.784-12.384Zm48.762-25.37c-13.846,0-19.78.946-23.564,3.7-4.042,2.924-5.246,6.794-5.246,16.34,0,11.782.946,15.566,4.73,18.662,3.87,3.182,8.944,4.042,24.166,4.042,15.05,0,20.124-.86,23.994-4.042,3.7-3.1,4.73-6.88,4.73-18.06,0-10.234-1.118-13.932-5.246-16.942C129.3-40.764,123.453-41.71,109.521-41.71Zm.086,11.438c4.3,0,7.912.43,9.8,1.2,2.838,1.118,3.7,3.1,3.7,8.6,0,8.6-1.978,10.062-13.5,10.062-4.9,0-8.342-.43-10.234-1.29-2.752-1.118-3.44-2.924-3.44-8.342C95.933-28.724,98-30.272,109.607-30.272Zm34.4-10.406V0h15.222V-16.254c0-7.482.344-9.374,2.236-11.352,1.806-1.892,4.816-2.666,10.406-2.666,5.676,0,8.6.6,10.234,2.236,1.634,1.548,1.892,3.01,1.892,9.546V0h15.222V-18.49c0-11.18-.774-14.276-4.472-18.146-3.612-3.7-8.6-5.074-18.318-5.074-9.89,0-14.534,1.978-17.286,7.224h-.774v-6.192ZM210.4-50.052v9.374h-8v10.922h8v11.868c0,3.354,0,5.418.086,6.106.172,4.644,1.032,6.88,3.182,9.03,3.01,2.924,6.966,3.784,16.684,3.784,10.492,0,15.136-1.29,18.232-5.16,2.322-3.01,2.924-5.5,3.1-13.244H237.747c0,4.214-.086,4.558-.6,5.5-.688,1.462-2.408,2.064-5.5,2.064-2.924,0-4.472-.6-5.246-1.978-.688-1.032-.774-1.634-.774-6.106V-29.756H249.7V-40.678h-24.08v-9.374Zm45.236,9.374V0h15.222V-40.678Zm0-16.684v11.438h15.222V-57.362Zm22.1,16.684V0h15.222V-16.254c0-7.482.344-9.374,2.236-11.352C297-29.5,300.011-30.272,305.6-30.272c5.676,0,8.6.6,10.234,2.236,1.634,1.548,1.892,3.01,1.892,9.546V0h15.222V-18.49c0-11.18-.774-14.276-4.472-18.146-3.612-3.7-8.6-5.074-18.318-5.074-9.89,0-14.534,1.978-17.286,7.224H292.1v-6.192ZM394.439,0V-40.678H379.217v16.34c0,7.568-.516,9.718-2.666,11.61-1.892,1.634-4.644,2.236-10.062,2.236-5.762,0-8.084-.516-9.89-2.236-1.634-1.548-2.064-3.44-2.064-9.374V-40.678H339.313V-22.1c0,11.094.774,14.19,4.472,17.974,3.7,3.7,8.686,5.16,18.146,5.16,10.234,0,15.05-1.978,17.372-7.138h.774V0ZM416.8-27.95c.43-3.7,1.548-4.042,12.47-4.042,9.2,0,10.406.86,10.406,7.224v2.15h-.688c-2.408-2.58-4.472-3.182-11.524-3.182-11.18,0-15.136.258-18.834,1.29-5.934,1.548-8.686,5.59-8.686,12.9,0,9.632,4.214,12.642,17.716,12.642,9.89,0,13.76-.344,16.254-1.376a9.751,9.751,0,0,0,5.676-5.246h.6V0h14.62V-24.51c0-7.4-.86-10.492-3.44-13.244-3.44-3.44-6.536-4.042-19.866-4.042-12.212,0-19.264.774-22.79,2.408-4.73,2.322-6.708,5.5-7.138,11.438ZM426.947-17.2c6.45,0,8.858.086,9.8.43a3.539,3.539,0,0,1,2.666,3.44c0,3.612-3.01,4.644-13.76,4.644-8.17,0-10.492-.946-10.492-4.214C415.165-16.254,417.659-17.2,426.947-17.2Zm90.644-40.162H502.369v22.1h-.6c-2.924-5.16-6.45-6.536-17.114-6.536-10.492,0-14.706.688-18.4,3.1-4.3,2.838-5.934,7.74-5.934,18.06,0,10.148,1.032,14.276,4.386,17.372,3.526,3.182,8.772,4.3,19.78,4.3s15.05-1.462,17.974-6.364h.774V0h14.362Zm-27.95,27c10.836,0,12.814,1.548,12.814,9.976,0,4.73-.6,6.88-2.322,8-1.72,1.2-5.848,1.892-11.438,1.892-11.438,0-13.158-1.376-13.158-10.32C475.537-28.982,477.6-30.358,489.641-30.358ZM552.163-41.71c-13.846,0-19.78.946-23.564,3.7-4.042,2.924-5.246,6.794-5.246,16.34,0,11.782.946,15.566,4.73,18.662,3.87,3.182,8.944,4.042,24.166,4.042,15.05,0,20.124-.86,23.994-4.042,3.7-3.1,4.73-6.88,4.73-18.06,0-10.234-1.118-13.932-5.246-16.942C571.943-40.764,566.1-41.71,552.163-41.71Zm.086,11.438c4.3,0,7.912.43,9.8,1.2,2.838,1.118,3.7,3.1,3.7,8.6,0,8.6-1.978,10.062-13.5,10.062-4.9,0-8.342-.43-10.234-1.29-2.752-1.118-3.44-2.924-3.44-8.342C538.575-28.724,540.639-30.272,552.249-30.272Zm33.11,17.286c.086,4.73,1.118,7.568,3.612,9.8,3.612,3.354,8.686,4.214,23.478,4.214,23.564,0,29.068-2.666,29.068-14.276,0-9.116-4.472-12.556-16.254-12.642-15.652-.086-18.318-.172-20.812-.344-2.408-.172-3.612-1.032-3.612-2.666,0-2.58,2.924-3.354,12.47-3.354,5.16,0,8.256.344,9.546,1.2.516.344.688.6,1.032,1.892h15.48c-.344-4.9-1.118-7.052-3.268-8.772-3.44-2.924-8.514-3.784-22.36-3.784-10.664,0-17.8.6-21.07,1.892-4.816,1.806-7.052,5.59-7.052,11.868,0,8.686,4.816,12.3,16.34,12.47,14.964,0,18.748.086,20.812.258,2.236.258,3.526,1.376,3.526,3.01,0,2.924-2.838,3.784-12.728,3.784-9.546,0-12.47-1.032-12.728-4.558Z" transform="translate(973.717 526)" fill="#fff"/>
  </g>
</svg>
