<svg xmlns="http://www.w3.org/2000/svg" width="430.807" height="66.128" viewBox="0 0 430.807 66.128">
  <g id="Grupo_293" data-name="Grupo 293" transform="translate(-1431 184.125)">
    <path id="Color_Overlay" data-name="Color Overlay" d="M357.288,65.1q-11.373-1.515-13.946-10.668-1.752-6.307-1.751-21.723,0-14.656,1.751-20.92,2.582-9.146,13.946-10.668Q365.128.088,386.2.1q21.011,0,28.91,1.026,11.374,1.515,13.945,10.668,1.754,6.305,1.753,21.289,0,15.04-1.753,21.354-2.582,9.144-13.945,10.668-7.889,1.033-28.716,1.025Q365.184,66.128,357.288,65.1ZM367.3,17.551a6.42,6.42,0,0,0-4.805,4.22q-1.145,3.272-1.136,13.01a41.82,41.82,0,0,0,.617,8.518c.795,3.273,3.181,5.135,7.192,5.615a168.172,168.172,0,0,0,17.175.563c7.952,0,13.262-.144,15.891-.417a11.684,11.684,0,0,0,5.844-1.894,6.655,6.655,0,0,0,2.337-3.882,40.563,40.563,0,0,0,.617-8.407,79.43,79.43,0,0,0-.47-10.171,10.794,10.794,0,0,0-1.72-4.894,7.393,7.393,0,0,0-5.18-2.567c-2.419-.338-8.213-.5-17.418-.5Q370.494,16.748,367.3,17.551ZM272.763,65.423c-5.259-.464-9.205-1.379-11.883-2.727a12.535,12.535,0,0,1-5.325-4.925,21.9,21.9,0,0,1-2.288-8.518c-.275-2.9-.422-8.182-.422-15.786q0-11.141.422-16.075a24.374,24.374,0,0,1,1.672-7.669q2.7-6.088,10.99-7.91Q274.208.007,299.353,0q12.564,0,18.262.561a29.642,29.642,0,0,1,9.106,2.119,12.2,12.2,0,0,1,6.233,6.129q1.8,4.066,1.8,11.967c0,.274-.031,1.347-.1,3.193H314.887a29.129,29.129,0,0,0-.406-4.252,3.418,3.418,0,0,0-1.073-1.779c-.762-.643-2.693-1.123-5.761-1.412q-4.626-.458-13.994-.451-9.276,0-12.856.4a9.977,9.977,0,0,0-5.033,1.573,7.8,7.8,0,0,0-2.451,4.733,56.926,56.926,0,0,0-.7,10.6,58.728,58.728,0,0,0,.617,10.267,6.776,6.776,0,0,0,2.388,4.284,10.937,10.937,0,0,0,5.307,1.7c2.419.272,6.72.416,12.873.416q11.369,0,15.162-.369,3.772-.386,5.114-1.637,1.751-1.636,1.85-7.621h19.787c.147,3.129.211,5.15.211,6.048q0,7.412-2.24,11.583c-1.639,3.129-4.87,5.263-9.659,6.385s-13.069,1.684-24.837,1.684Q280.635,66.128,272.763,65.423Zm-87.951-.048q-6.988-.748-10.519-2.68a11.322,11.322,0,0,1-5.064-5.47q-1.388-3.395-1.4-10.317l.049-3.016h19.154c-.033,3.193.617,5.263,1.948,6.178a7.87,7.87,0,0,0,3.686,1.074q2.264.17,14.22.258,12.539-.052,15.063-.161a11.8,11.8,0,0,0,3.978-.74c1.461-.592,2.191-2.212,2.191-4.844,0-1.909-.519-3.192-1.542-3.834-1.039-.64-3.133-.994-6.3-1.058-2.436,0-7.614-.193-15.5-.562q-12.126-.576-15.778-.656A47.456,47.456,0,0,1,178.044,38.2a12.141,12.141,0,0,1-5.975-3.593c-2.434-2.776-3.651-7.381-3.651-13.845q0-10.878,4.187-15.355c2.126-2.309,5.389-3.8,9.789-4.443Q189.016,0,209.258,0q14.32,0,20.114.8,8.935,1.228,12.271,4.909,3.337,3.707,3.328,12.451v3.014H225.8a13.764,13.764,0,0,0-.454-3.672,3.028,3.028,0,0,0-1.4-1.605,11.3,11.3,0,0,0-4.528-.963c-2.144-.144-6.722-.208-13.7-.208-8.392,0-13.522.257-15.356.769-1.835.53-2.761,1.96-2.761,4.316,0,2.247.925,3.626,2.761,4.139q2.288.6,20.957,1.171,15.728.458,21.037,1.107a22.25,22.25,0,0,1,8.44,2.422,11.576,11.576,0,0,1,5.033,5.809q1.486,3.68,1.478,10.6,0,9.072-2.467,13.492A11.709,11.709,0,0,1,239.68,63.4a28.426,28.426,0,0,1-9.3,2.165q-6.431.553-23.928.561Q191.817,66.128,184.812,65.375Zm-40.046-.21L139.2,54.29H96.261L90.693,65.165H68.1L102.544.963h30.713l33.96,64.2Zm-41.475-24.93h28.976L119.75,15.882h-3.945ZM28.927,65.165V17.327H0V.963H78.6V17.327H49.672V65.165Z" transform="translate(1431 -184.125)" fill="#164783"/>
  </g>
</svg>
