<svg xmlns="http://www.w3.org/2000/svg" width="295.651" height="45.382" viewBox="0 0 295.651 45.382">
  <g id="Grupo_294" data-name="Grupo 294" transform="translate(-1431 184.125)">
    <path id="Color_Overlay" data-name="Color Overlay" d="M245.2,44.678q-7.805-1.04-9.571-7.321-1.2-4.329-1.2-14.908,0-10.058,1.2-14.357Q237.4,1.816,245.2.771q5.38-.711,19.84-.7,14.42,0,19.84.7,7.805,1.04,9.57,7.321,1.2,4.327,1.2,14.61,0,10.322-1.2,14.655-1.772,6.275-9.57,7.321-5.414.709-19.707.7Q250.617,45.382,245.2,44.678Zm6.873-32.633a4.406,4.406,0,0,0-3.3,2.9q-.786,2.245-.78,8.929a28.7,28.7,0,0,0,.423,5.846c.546,2.246,2.183,3.524,4.935,3.854a115.413,115.413,0,0,0,11.787.386c5.457,0,9.1-.1,10.905-.286a8.019,8.019,0,0,0,4.011-1.3,4.567,4.567,0,0,0,1.6-2.664,27.839,27.839,0,0,0,.423-5.769,54.494,54.494,0,0,0-.323-6.98,7.407,7.407,0,0,0-1.18-3.358,5.074,5.074,0,0,0-3.555-1.761c-1.66-.232-5.636-.342-11.953-.342Q254.261,11.494,252.071,12.045ZM187.19,44.9a23.349,23.349,0,0,1-8.155-1.872,8.6,8.6,0,0,1-3.654-3.38,15.028,15.028,0,0,1-1.57-5.846c-.189-1.993-.29-5.615-.29-10.834q0-7.646.29-11.032a16.728,16.728,0,0,1,1.148-5.263q1.854-4.178,7.542-5.428T205.438,0q8.622,0,12.533.385a20.341,20.341,0,0,1,6.25,1.454A8.375,8.375,0,0,1,228.5,6.045a21.139,21.139,0,0,1,1.236,8.213c0,.188-.022.924-.066,2.191H216.1a19.994,19.994,0,0,0-.278-2.918,2.346,2.346,0,0,0-.737-1.221c-.523-.441-1.848-.771-3.953-.969s-5.315-.309-9.6-.309q-6.366,0-8.823.276a6.845,6.845,0,0,0-3.454,1.079,5.354,5.354,0,0,0-1.682,3.248,39.064,39.064,0,0,0-.479,7.277,40.3,40.3,0,0,0,.423,7.046,4.65,4.65,0,0,0,1.639,2.94,7.5,7.5,0,0,0,3.642,1.168c1.66.187,4.612.286,8.834.286q7.8,0,10.405-.253a6.239,6.239,0,0,0,3.509-1.123q1.2-1.123,1.27-5.23h13.58c.1,2.147.145,3.534.145,4.151A16.969,16.969,0,0,1,229,39.844c-1.125,2.147-3.342,3.612-6.628,4.382s-8.969,1.156-17.045,1.156Q192.592,45.382,187.19,44.9Zm-60.358-.033a20.044,20.044,0,0,1-7.219-1.839,7.771,7.771,0,0,1-3.476-3.754,19.767,19.767,0,0,1-.958-7.08l.034-2.07h13.145c-.023,2.191.423,3.612,1.337,4.24a5.4,5.4,0,0,0,2.529.737q1.553.116,9.759.177,8.605-.035,10.337-.11a8.1,8.1,0,0,0,2.73-.508c1-.406,1.5-1.518,1.5-3.325A2.883,2.883,0,0,0,155.5,28.7a9.714,9.714,0,0,0-4.322-.726c-1.672,0-5.225-.133-10.639-.386q-8.322-.4-10.828-.45a32.573,32.573,0,0,1-7.519-.925,8.332,8.332,0,0,1-4.1-2.466c-1.67-1.905-2.506-5.066-2.506-9.5q0-7.465,2.874-10.538c1.459-1.585,3.7-2.608,6.718-3.049S134.341,0,143.608,0a117.332,117.332,0,0,1,13.8.55q6.132.842,8.421,3.369,2.29,2.544,2.284,8.544v2.069H154.961a9.446,9.446,0,0,0-.311-2.52,2.078,2.078,0,0,0-.959-1.1,7.755,7.755,0,0,0-3.108-.661c-1.471-.1-4.613-.143-9.4-.143-5.759,0-9.28.177-10.539.528s-1.894,1.345-1.894,2.962a2.589,2.589,0,0,0,1.894,2.841q1.57.412,14.382.8,10.793.314,14.437.76a15.27,15.27,0,0,1,5.792,1.662,7.944,7.944,0,0,1,3.454,3.986,20.241,20.241,0,0,1,1.014,7.277q0,6.226-1.693,9.259a8.036,8.036,0,0,1-3.542,3.325A19.507,19.507,0,0,1,158.1,45q-4.414.38-16.421.385Q131.639,45.382,126.832,44.865Zm-27.483-.144-3.821-7.463H66.061l-3.821,7.463H46.734L70.373.661H91.45l23.306,44.061ZM70.886,27.613H90.771L82.182,10.9H79.474ZM19.852,44.721V11.891H0V.661H53.941v11.23H34.089v32.83Z" transform="translate(1431 -184.125)" fill="#fff"/>
  </g>
</svg>
